<?xml version="1.0" standalone="no"?>
<!DOCTYPE svg PUBLIC "-//W3C//DTD SVG 20010904//EN"
 "http://www.w3.org/TR/2001/REC-SVG-20010904/DTD/svg10.dtd">
<svg version="1.0" xmlns="http://www.w3.org/2000/svg"
 width="760.000000pt" height="1280.000000pt" viewBox="0 0 760.000000 1280.000000"
 preserveAspectRatio="xMidYMid meet">
<g transform="translate(0.000000,1280.000000) scale(0.100000,-0.100000)"
fill="#ffffff" stroke="none">
<path d="M3490 12797 c-3 -3 -52 -11 -110 -17 -789 -89 -1516 -524 -2105
-1262 -266 -334 -421 -624 -504 -943 -26 -99 -55 -315 -44 -326 4 -4 67 -15
139 -23 136 -16 184 -28 184 -46 0 -21 -66 -49 -154 -65 -50 -9 -104 -21 -120
-27 l-28 -11 7 -76 c27 -314 93 -567 196 -761 54 -101 73 -120 113 -114 57 8
63 -5 42 -89 -13 -53 -17 -90 -12 -126 6 -44 4 -52 -11 -58 -64 -22 -184 -85
-216 -113 -63 -55 -81 -101 -80 -205 1 -248 145 -489 390 -651 118 -79 278
-141 330 -128 38 10 72 -22 109 -102 19 -42 47 -87 62 -102 21 -20 41 -64 76
-172 105 -316 242 -534 415 -660 34 -25 61 -52 61 -62 0 -10 -46 -52 -113
-102 -461 -348 -804 -737 -1088 -1231 -156 -273 -310 -648 -389 -948 l-23 -87
-76 6 c-124 10 -167 -23 -144 -109 l12 -42 -93 -95 c-166 -170 -242 -309 -292
-534 -29 -132 -30 -166 -4 -284 25 -116 50 -179 106 -269 64 -103 106 -135
227 -174 173 -54 194 -70 246 -181 39 -82 134 -181 219 -226 32 -17 73 -50 91
-73 95 -117 303 -128 394 -20 46 55 51 88 28 199 -31 147 -36 253 -17 341 8
40 21 80 27 87 19 23 42 -6 94 -114 62 -128 75 -145 150 -186 50 -29 82 -39
147 -47 103 -12 111 -21 105 -106 -4 -48 -17 -89 -65 -190 -146 -313 -214
-562 -232 -856 -8 -132 -9 -140 -35 -167 -15 -15 -48 -36 -73 -45 -157 -59
-382 -197 -495 -305 -91 -86 -147 -169 -189 -281 -29 -76 -32 -95 -32 -200 -1
-108 1 -120 28 -177 l29 -60 -32 -49 c-22 -33 -31 -57 -29 -78 3 -29 5 -30 68
-38 113 -13 568 -12 1060 2 538 15 1230 10 1292 -10 33 -11 40 -10 59 7 20 17
21 26 15 100 -5 66 -2 92 14 139 78 227 70 513 -20 711 -17 37 -28 75 -25 85
3 9 25 29 48 44 234 154 368 354 448 673 16 63 29 136 29 164 0 41 5 54 29 79
26 25 37 29 85 29 47 0 60 -4 86 -28 26 -24 32 -42 54 -152 70 -352 215 -603
427 -743 31 -20 59 -44 63 -53 3 -9 -11 -54 -33 -103 -64 -142 -75 -190 -73
-326 0 -88 9 -166 32 -290 17 -93 34 -203 37 -243 l6 -72 361 0 c199 0 622 -5
941 -11 445 -10 651 -10 884 -1 168 7 306 14 308 16 2 2 -10 32 -27 67 -35 76
-37 110 -9 164 30 55 36 171 15 267 -56 251 -254 457 -603 625 -76 37 -141 71
-145 77 -3 5 -9 37 -13 70 -15 139 -57 386 -85 502 -42 170 -90 304 -165 464
-92 194 -96 273 -15 293 118 28 141 39 200 94 46 42 70 76 100 137 21 45 42
93 45 108 4 15 14 33 22 40 61 50 90 -247 43 -440 -33 -138 -13 -206 76 -258
97 -57 235 -40 310 37 21 22 75 66 118 97 129 91 199 163 244 250 23 43 49 85
59 95 26 23 77 43 156 61 104 24 139 47 202 130 70 94 117 195 144 314 23 102
26 165 12 221 -6 20 -17 69 -27 110 -40 182 -139 347 -295 495 l-101 95 21 30
c27 37 27 75 0 102 -20 20 -28 21 -103 15 -59 -5 -86 -3 -99 6 -11 8 -30 61
-51 143 -68 258 -149 470 -281 730 -274 543 -661 1001 -1167 1379 -77 58 -118
95 -118 107 0 11 17 30 43 45 58 37 175 156 224 229 93 139 166 313 254 605
28 96 56 180 60 186 5 6 37 14 72 18 280 28 563 228 695 492 49 98 64 173 60
299 -3 99 -6 115 -33 164 -22 39 -42 60 -79 81 -59 34 -92 41 -251 49 -114 6
-120 7 -118 27 1 11 49 125 107 252 58 127 119 272 137 321 37 106 35 111 -44
137 -100 32 -102 54 -9 83 43 13 78 31 96 50 l28 29 -16 199 c-9 109 -23 270
-31 358 -69 737 -206 1224 -459 1632 -72 116 -85 129 -159 151 -158 49 -281
56 -727 38 l-225 -9 -68 81 c-138 164 -344 312 -584 420 -214 96 -572 192
-743 199 -58 3 -107 2 -110 0z m1957 -7991 c169 -180 326 -466 439 -801 19
-54 32 -106 29 -115 -3 -9 -33 -30 -67 -46 -110 -52 -148 -80 -148 -111 0 -18
10 -35 31 -53 l31 -26 -12 -107 c-16 -132 -9 -218 25 -322 20 -58 29 -109 32
-187 6 -105 5 -106 -21 -133 -15 -14 -32 -25 -39 -22 -7 2 -26 42 -42 88 -36
99 -73 167 -185 339 -105 162 -157 270 -177 367 -15 72 -15 88 1 203 21 163
21 463 0 764 -20 287 -17 291 103 162z m-3189 61 c8 -10 7 -77 -3 -243 -18
-279 -19 -689 -4 -921 l12 -173 -75 -112 c-129 -193 -183 -295 -258 -488 -53
-135 -82 -133 -129 9 -23 69 -23 70 33 336 30 139 32 189 11 268 -22 83 -19
95 25 139 22 22 40 47 40 55 0 25 -51 62 -118 84 -72 24 -112 56 -112 89 0 31
121 324 196 475 115 231 304 488 365 494 4 1 11 -5 17 -12z"/>
</g>
</svg>
