<?xml version="1.0" encoding="utf-8"?>
<!-- Generator: Adobe Illustrator 23.0.1, SVG Export Plug-In . SVG Version: 6.00 Build 0)  -->
<svg version="1.1" id="Слой_1" xmlns="http://www.w3.org/2000/svg" xmlns:xlink="http://www.w3.org/1999/xlink" x="0px" y="0px"
	 viewBox="0 0 242.5 76.8" style="enable-background:new 0 0 242.5 76.8;" xml:space="preserve">
<style type="text/css">
	.st0{enable-background:new    ;}
	.st1{fill:#E3E3E3;}
</style>
<g class="st0">
	<path class="st1" d="M73.9,58L60.5,71.4H15.8L2.4,58V2.2l17.8,10.3v45.7H56V12.4h17.8V58z"/>
</g>
<g class="st0">
	<path class="st1" d="M101.6,12.1l-8.2,8.3l7.5,8v6.5h-6.5v-5.5l-4.8-5.1l-6.9,6.9V35l-6.5,3.9V12.1h6.5v11.2l11.2-11.2H101.6z"/>
	<path class="st1" d="M134.1,34.9h-6.5v-5.6l-2-2h-12.4v7.6l-6.5,3.9V12.1h22.4l4.9,7l-3.7,5.3l3.7,3.9V34.9z M127.4,19.6l-1.7-2.4
		h-12.5v4.9h12.4L127.4,19.6z"/>
	<path class="st1" d="M164.8,34.9h-6.5v-6.5h-13.1V35l-6.5,3.9V17.2l4.9-5.1h16.3l4.9,5.1V34.9z M158.3,23.3v-6.2h-13.1v6.2H158.3z"
		/>
	<path class="st1" d="M176.9,34.9l-6.5,3.9V12.1h6.5V34.9z"/>
	<path class="st1" d="M209.3,34.9h-4.9l-15.2-13.3v13.3l-6.5,3.9V12.1h4.6l15.5,13.6V12.1h6.5V34.9z"/>
	<path class="st1" d="M240.7,12.1l-4.8,5.1h-14.4v4h16.1l-4.4,4.6h-11.7v3.9h18.4l-4.8,5.1H215V12.1H240.7z"/>
</g>
<g class="st0">
	<path class="st1" d="M103.5,43.2l8.4,0V71h-8.4v-11h-23l-4.2-5.6L103.5,43.2z M103.5,54.3V49l-13.1,5.3H103.5z"/>
	<path class="st1" d="M157.9,43.2l-14.6,14.7V71l-8.4,4.8V57.9l-14.6-14.7h9.9l8.9,8.9l8.9-8.9H157.9z"/>
	<path class="st1" d="M196.9,64.7l-6.3,6.3h-23.1l-6.3-6.3V49.5l6.3-6.3h23.1l6.3,6.3V64.7z M188.6,64.8V49.4h-18.9v15.3H188.6z"/>
	<path class="st1" d="M240.2,64.7l-6.3,6.3h-21l-6.3-6.3V38.4l8.4,4.8v21.5h16.9V43.2h8.4V64.7z"/>
</g>
</svg>
